<svg width="600" height="400" xmlns="http://www.w3.org/2000/svg">
  <!-- Background -->
  <rect width="600" height="400" fill="#F8FAFC"/>
  
  <!-- Reception Desk -->
  <rect x="100" y="250" width="400" height="80" rx="5" fill="#FFFFFF" stroke="#4F92FF" stroke-width="2"/>
  <rect x="100" y="330" width="400" height="20" fill="#4F92FF" opacity="0.3"/>
  
  <!-- Reception Computer -->
  <rect x="250" y="230" width="100" height="60" rx="5" fill="#1E293B"/>
  <rect x="260" y="240" width="80" height="40" rx="2" fill="#F0F7FF"/>
  
  <!-- Receptionist -->
  <circle cx="300" cy="200" r="25" fill="#FFFFFF" stroke="#4F92FF" stroke-width="2"/>
  <rect x="285" y="225" width="30" height="40" rx="5" fill="#FFFFFF" stroke="#4F92FF" stroke-width="2"/>
  <circle cx="290" cy="195" r="3" fill="#1E293B"/>
  <circle cx="310" cy="195" r="3" fill="#1E293B"/>
  <path d="M295 205 Q300 210 305 205" stroke="#1E293B" stroke-width="1.5" fill="none"/>
  
  <!-- Waiting Area -->
  <!-- Sofa 1 -->
  <rect x="50" y="150" width="120" height="50" rx="10" fill="#4F92FF" opacity="0.2"/>
  <rect x="50" y="140" width="120" height="20" rx="5" fill="#4F92FF" opacity="0.3"/>
  
  <!-- Sofa 2 -->
  <rect x="50" y="50" width="120" height="50" rx="10" fill="#4F92FF" opacity="0.2"/>
  <rect x="50" y="40" width="120" height="20" rx="5" fill="#4F92FF" opacity="0.3"/>
  
  <!-- Coffee Table -->
  <rect x="80" y="100" width="60" height="30" rx="2" fill="#FFFFFF" stroke="#1E293B" stroke-width="1"/>
  <line x1="85" y1="130" x2="85" y2="140" stroke="#1E293B" stroke-width="2"/>
  <line x1="135" y1="130" x2="135" y2="140" stroke="#1E293B" stroke-width="2"/>
  
  <!-- Plants -->
  <rect x="30" y="30" width="20" height="20" fill="#FFFFFF" stroke="#1E293B" stroke-width="1"/>
  <path d="M30 30 Q40 10 50 30" fill="#4F92FF" opacity="0.3"/>
  <path d="M30 30 Q50 15 50 30" fill="#4F92FF" opacity="0.3"/>
  
  <rect x="30" y="200" width="20" height="20" fill="#FFFFFF" stroke="#1E293B" stroke-width="1"/>
  <path d="M30 200 Q40 180 50 200" fill="#4F92FF" opacity="0.3"/>
  <path d="M30 200 Q50 185 50 200" fill="#4F92FF" opacity="0.3"/>
  
  <!-- Clinic Logo on Wall -->
  <circle cx="500" cy="100" r="50" fill="#FFFFFF" stroke="#4F92FF" stroke-width="3"/>
  <path d="M480 100 Q500 70 520 100 Q540 130 500 150 Q460 130 480 100" fill="none" stroke="#4F92FF" stroke-width="3"/>
  
  <!-- Decorative Elements -->
  <rect x="450" y="200" width="100" height="2" fill="#4F92FF"/>
  <rect x="450" y="210" width="80" height="2" fill="#4F92FF"/>
  <rect x="450" y="220" width="60" height="2" fill="#4F92FF"/>
  
  <!-- Wall Decor -->
  <rect x="200" y="50" width="80" height="60" rx="2" fill="#FFFFFF" stroke="#1E293B" stroke-width="1"/>
  <rect x="210" y="60" width="60" height="40" fill="#4F92FF" opacity="0.2"/>
  
  <rect x="300" y="50" width="80" height="60" rx="2" fill="#FFFFFF" stroke="#1E293B" stroke-width="1"/>
  <circle cx="340" cy="80" r="20" fill="#4F92FF" opacity="0.2"/>
  
  <!-- Floor Pattern -->
  <line x1="0" y1="350" x2="600" y2="350" stroke="#1E293B" stroke-width="0.5" stroke-dasharray="5,5"/>
  <line x1="100" y1="350" x2="100" y2="400" stroke="#1E293B" stroke-width="0.5" stroke-dasharray="5,5"/>
  <line x1="200" y1="350" x2="200" y2="400" stroke="#1E293B" stroke-width="0.5" stroke-dasharray="5,5"/>
  <line x1="300" y1="350" x2="300" y2="400" stroke="#1E293B" stroke-width="0.5" stroke-dasharray="5,5"/>
  <line x1="400" y1="350" x2="400" y2="400" stroke="#1E293B" stroke-width="0.5" stroke-dasharray="5,5"/>
  <line x1="500" y1="350" x2="500" y2="400" stroke="#1E293B" stroke-width="0.5" stroke-dasharray="5,5"/>
</svg>