<svg width="600" height="400" xmlns="http://www.w3.org/2000/svg">
  <!-- Background -->
  <rect width="600" height="400" fill="#F0F7FF"/>
  
  <!-- Dentist 1 (Center) -->
  <circle cx="300" cy="150" r="60" fill="#FFFFFF" stroke="#4F92FF" stroke-width="2"/>
  <rect x="270" y="210" width="60" height="100" rx="10" fill="#FFFFFF" stroke="#4F92FF" stroke-width="2"/>
  <circle cx="285" cy="140" r="6" fill="#1E293B"/>
  <circle cx="315" cy="140" r="6" fill="#1E293B"/>
  <path d="M290 165 Q300 175 310 165" stroke="#1E293B" stroke-width="2" fill="none"/>
  <!-- Stethoscope -->
  <path d="M290 230 Q270 250 290 270" stroke="#4F92FF" stroke-width="3" fill="none"/>
  <circle cx="290" cy="270" r="8" fill="#4F92FF"/>
  
  <!-- Dentist 2 (Left) -->
  <circle cx="150" cy="170" r="50" fill="#FFFFFF" stroke="#4F92FF" stroke-width="2"/>
  <rect x="125" y="220" width="50" height="90" rx="10" fill="#FFFFFF" stroke="#4F92FF" stroke-width="2"/>
  <circle cx="135" cy="160" r="5" fill="#1E293B"/>
  <circle cx="165" cy="160" r="5" fill="#1E293B"/>
  <path d="M140 180 Q150 190 160 180" stroke="#1E293B" stroke-width="2" fill="none"/>
  <!-- Dental Mirror -->
  <line x1="175" y1="230" x2="195" y2="210" stroke="#1E293B" stroke-width="2"/>
  <circle cx="200" cy="205" r="10" fill="#FFFFFF" stroke="#1E293B" stroke-width="2"/>
  
  <!-- Dentist 3 (Right) -->
  <circle cx="450" cy="170" r="50" fill="#FFFFFF" stroke="#4F92FF" stroke-width="2"/>
  <rect x="425" y="220" width="50" height="90" rx="10" fill="#FFFFFF" stroke="#4F92FF" stroke-width="2"/>
  <circle cx="435" cy="160" r="5" fill="#1E293B"/>
  <circle cx="465" cy="160" r="5" fill="#1E293B"/>
  <path d="M440 180 Q450 190 460 180" stroke="#1E293B" stroke-width="2" fill="none"/>
  <!-- Clipboard -->
  <rect x="400" y="230" width="30" height="40" rx="2" fill="#FFFFFF" stroke="#1E293B" stroke-width="2"/>
  <rect x="400" y="230" width="30" height="10" rx="2" fill="#4F92FF" opacity="0.3"/>
  <line x1="410" y1="245" x2="420" y2="245" stroke="#1E293B" stroke-width="1"/>
  <line x1="410" y1="255" x2="420" y2="255" stroke="#1E293B" stroke-width="1"/>
  
  <!-- Dental Chair (Background) -->
  <rect x="200" y="320" width="200" height="30" rx="5" fill="#FFFFFF" stroke="#4F92FF" stroke-width="2"/>
  <rect x="250" y="350" width="100" height="20" rx="5" fill="#FFFFFF" stroke="#4F92FF" stroke-width="2"/>
  
  <!-- Dental Tools (Background) -->
  <rect x="50" y="330" width="100" height="40" rx="5" fill="#FFFFFF" stroke="#4F92FF" stroke-width="2"/>
  <line x1="70" y1="340" x2="130" y2="340" stroke="#4F92FF" stroke-width="1"/>
  <line x1="70" y1="350" x2="130" y2="350" stroke="#4F92FF" stroke-width="1"/>
  <line x1="70" y1="360" x2="130" y2="360" stroke="#4F92FF" stroke-width="1"/>
  
  <!-- X-Ray Display (Background) -->
  <rect x="450" y="330" width="100" height="60" rx="5" fill="#1E293B" stroke="#4F92FF" stroke-width="2"/>
  <path d="M480 350 Q500 330 520 350 Q540 370 500 380 Q460 370 480 350" fill="none" stroke="#FFFFFF" stroke-width="1"/>
  
  <!-- Decorative Elements -->
  <circle cx="50" cy="50" r="20" fill="#4F92FF" opacity="0.2"/>
  <circle cx="550" cy="50" r="20" fill="#4F92FF" opacity="0.2"/>
  <circle cx="50" cy="350" r="20" fill="#4F92FF" opacity="0.2"/>
  <circle cx="550" cy="350" r="20" fill="#4F92FF" opacity="0.2"/>
  
  <!-- Lab Coats Details -->
  <line x1="270" y1="230" x2="330" y2="230" stroke="#4F92FF" stroke-width="1"/>
  <line x1="125" y1="240" x2="175" y2="240" stroke="#4F92FF" stroke-width="1"/>
  <line x1="425" y1="240" x2="475" y2="240" stroke="#4F92FF" stroke-width="1"/>
</svg>