<svg width="800" height="600" xmlns="http://www.w3.org/2000/svg">
  <!-- Background -->
  <rect width="800" height="600" fill="#F0F7FF"/>
  
  <!-- Dentist Figure -->
  <circle cx="300" cy="250" r="100" fill="#4F92FF" opacity="0.2"/>
  <rect x="270" y="180" width="60" height="120" rx="20" fill="#FFFFFF" stroke="#4F92FF" stroke-width="2"/>
  <circle cx="300" cy="150" r="50" fill="#FFFFFF" stroke="#4F92FF" stroke-width="2"/>
  <circle cx="285" cy="140" r="5" fill="#1E293B"/>
  <circle cx="315" cy="140" r="5" fill="#1E293B"/>
  <path d="M290 160 Q300 170 310 160" stroke="#1E293B" stroke-width="2" fill="none"/>
  
  <!-- Patient Figure -->
  <circle cx="500" cy="280" r="90" fill="#4F92FF" opacity="0.2"/>
  <rect x="470" y="220" width="60" height="110" rx="20" fill="#FFFFFF" stroke="#4F92FF" stroke-width="2"/>
  <circle cx="500" cy="190" r="45" fill="#FFFFFF" stroke="#4F92FF" stroke-width="2"/>
  <circle cx="485" cy="180" r="5" fill="#1E293B"/>
  <circle cx="515" cy="180" r="5" fill="#1E293B"/>
  <path d="M485 200 Q500 215 515 200" stroke="#1E293B" stroke-width="2" fill="none"/>
  
  <!-- Dental Chair (Simplified) -->
  <rect x="350" y="350" width="200" height="50" rx="10" fill="#FFFFFF" stroke="#4F92FF" stroke-width="2"/>
  <rect x="380" y="400" width="140" height="20" rx="5" fill="#FFFFFF" stroke="#4F92FF" stroke-width="2"/>
  <rect x="420" y="420" width="60" height="80" rx="5" fill="#FFFFFF" stroke="#4F92FF" stroke-width="2"/>
  
  <!-- Dental Tools -->
  <circle cx="600" cy="150" r="40" fill="#FFFFFF" stroke="#4F92FF" stroke-width="2"/>
  <line x1="580" y1="130" x2="620" y2="170" stroke="#4F92FF" stroke-width="2"/>
  <line x1="580" y1="170" x2="620" y2="130" stroke="#4F92FF" stroke-width="2"/>
  
  <!-- Tooth Icons -->
  <path d="M150 150 Q130 180 150 210 Q170 240 190 210 Q210 180 190 150 Q170 120 150 150" fill="#FFFFFF" stroke="#4F92FF" stroke-width="2"/>
  <path d="M150 450 Q130 480 150 510 Q170 540 190 510 Q210 480 190 450 Q170 420 150 450" fill="#FFFFFF" stroke="#4F92FF" stroke-width="2"/>
  <path d="M650 450 Q630 480 650 510 Q670 540 690 510 Q710 480 690 450 Q670 420 650 450" fill="#FFFFFF" stroke="#4F92FF" stroke-width="2"/>
  
  <!-- Decorative Elements -->
  <circle cx="100" cy="100" r="20" fill="#4F92FF" opacity="0.3"/>
  <circle cx="700" cy="100" r="30" fill="#4F92FF" opacity="0.3"/>
  <circle cx="100" cy="500" r="30" fill="#4F92FF" opacity="0.3"/>
  <circle cx="700" cy="500" r="20" fill="#4F92FF" opacity="0.3"/>
</svg>