<svg width="200" height="200" xmlns="http://www.w3.org/2000/svg">
  <!-- Background -->
  <circle cx="100" cy="100" r="100" fill="#F0F7FF"/>
  
  <!-- Face -->
  <circle cx="100" cy="90" r="60" fill="#FFFFFF" stroke="#4F92FF" stroke-width="2"/>
  
  <!-- Eyes -->
  <circle cx="80" cy="80" r="6" fill="#1E293B"/>
  <circle cx="120" cy="80" r="6" fill="#1E293B"/>
  
  <!-- Eyebrows -->
  <path d="M70 68 Q80 63 90 68" stroke="#1E293B" stroke-width="2" fill="none"/>
  <path d="M110 68 Q120 63 130 68" stroke="#1E293B" stroke-width="2" fill="none"/>
  
  <!-- Smile -->
  <path d="M75 100 Q100 120 125 100" stroke="#1E293B" stroke-width="2" fill="none"/>
  
  <!-- Hair -->
  <path d="M50 50 Q60 30 100 30 Q140 30 150 50" fill="#1E293B"/>
  <path d="M40 90 L50 50 L60 90" fill="#1E293B"/>
  <path d="M140 90 L150 50 L160 90" fill="#1E293B"/>
  
  <!-- Beard -->
  <path d="M70 110 Q100 140 130 110 Q115 150 85 150 Q70 110 70 110" fill="#1E293B" opacity="0.7"/>
  
  <!-- Shoulders/Body -->
  <path d="M60 150 Q100 130 140 150 L150 200 L50 200 Z" fill="#4F92FF" opacity="0.3"/>
  
  <!-- Shirt Collar -->
  <path d="M85 150 L100 170 L115 150" stroke="#1E293B" stroke-width="2" fill="none"/>
</svg>